<?xml version="1.0"?>
<svg xmlns="http://www.w3.org/2000/svg" width="512" height="512" viewBox="0 0 128 128"><g><path d="M70.685,36.452a8.434,8.434,0,1,0-8.435-8.433A8.443,8.443,0,0,0,70.685,36.452Zm0-13.368a4.934,4.934,0,1,1-4.935,4.935A4.941,4.941,0,0,1,70.685,23.084Z"/><path d="M113.922,68.116h-1.8V12.4a1.749,1.749,0,0,0-1.75-1.75H92.922A12.414,12.414,0,0,0,80.654,0H47.346A12.415,12.415,0,0,0,35.078,10.653H17.625a1.75,1.75,0,0,0-1.75,1.75V68.116h-1.8a7.078,7.078,0,1,0,0,14.156H36.355L17.412,125.545a1.749,1.749,0,0,0,1.6,2.452H30.672a1.75,1.75,0,0,0,1.6-1.048L51.832,82.272h5.09v43.975a1.75,1.75,0,0,0,1.75,1.75H69.328a1.749,1.749,0,0,0,1.75-1.75V82.272h5.09l19.557,44.677a1.75,1.75,0,0,0,1.6,1.048h11.656a1.75,1.75,0,0,0,1.6-2.452L91.646,82.272h22.276a7.078,7.078,0,0,0,0-14.156Zm-24.6,0H21.955l32.12-31.034Zm5.3,0-15.3-13.471-4.491-3.954L88.91,37.082l19.714,17.359V68.116ZM47.346,3.5H80.654a8.921,8.921,0,0,1,8.734,7.156H38.613A8.92,8.92,0,0,1,47.346,3.5Zm61.278,10.656V49.778L90.012,33.389a1.75,1.75,0,0,0-2.372.054L72.191,48.371,55.176,33.389a1.75,1.75,0,0,0-2.372.054l-33.429,32.3V14.153ZM29.528,124.5H21.691L40.175,82.272h7.837Zm38.05,0H60.422V82.272h7.156Zm38.73,0H98.473L79.989,82.272h7.835Zm7.614-45.725H14.078a3.578,3.578,0,1,1,0-7.156h99.844a3.578,3.578,0,0,1,0,7.156Z"/></g></svg>
